<svg xmlns="http://www.w3.org/2000/svg" width="600" height="150" viewBox="0 0 600 150">
  <g fill="none" fill-rule="evenodd">
    <g transform="translate(0 1)">
      <polygon fill="#F9C0FF" points="22.624 12 26.624 12 26.624 0 22.624 0"/>
      <path fill="#DFC0FF" d="M17.2007,35.4336 L32.0477,35.4336 C34.1257,35.4336 35.8157,37.1236 35.8157,39.2016 C35.8157,42.8256 38.7637,45.7736 42.3877,45.7736 C43.9657,45.7736 45.2487,44.4906 45.2487,42.9126 L45.2487,24.1766 C45.2487,18.8476 40.9127,14.5116 35.5827,14.5116 L13.6657,14.5116 C8.3357,14.5116 3.9997,18.8476 3.9997,24.1766 L3.9997,42.9126 C3.9997,44.4906 5.2837,45.7736 6.8607,45.7736 C10.4847,45.7736 13.4327,42.8256 13.4327,39.2016 C13.4327,37.1236 15.1227,35.4336 17.2007,35.4336 M42.3877,49.7736 C36.6357,49.7736 31.9417,45.1566 31.8177,39.4336 L17.4307,39.4336 C17.3067,45.1566 12.6127,49.7736 6.8607,49.7736 C3.0777,49.7736 -0.0003,46.6966 -0.0003,42.9126 L-0.0003,24.1766 C-0.0003,16.6416 6.1307,10.5116 13.6657,10.5116 L35.5827,10.5116 C43.1177,10.5116 49.2487,16.6416 49.2487,24.1766 L49.2487,42.9126 C49.2487,46.6966 46.1707,49.7736 42.3877,49.7736"/>
      <path fill="#F9C0FF" d="M37.1182 22.5991C37.1182 23.7221 36.2082 24.6321 35.0852 24.6321 33.9632 24.6321 33.0532 23.7221 33.0532 22.5991 33.0532 21.4761 33.9632 20.5661 35.0852 20.5661 36.2082 20.5661 37.1182 21.4761 37.1182 22.5991M40.7251 27.5024C40.7251 28.6254 39.8151 29.5354 38.6921 29.5354 37.5701 29.5354 36.6601 28.6254 36.6601 27.5024 36.6601 26.3794 37.5701 25.4694 38.6921 25.4694 39.8151 25.4694 40.7251 26.3794 40.7251 27.5024"/>
      <path fill="#DFC0FF" d="M31.0225 32.4844L28.0715 32.4844C27.7835 32.4844 27.5485 32.2504 27.5485 31.9624L27.5485 29.7694C27.5485 29.4804 27.7835 29.2464 28.0715 29.2464L31.0225 29.2464C31.3115 29.2464 31.5455 29.4804 31.5455 29.7694L31.5455 31.9624C31.5455 32.2504 31.3115 32.4844 31.0225 32.4844M21.6514 32.4844L18.7004 32.4844C18.4124 32.4844 18.1784 32.2504 18.1784 31.9624L18.1784 29.7694C18.1784 29.4804 18.4124 29.2464 18.7004 29.2464L21.6514 29.2464C21.9404 29.2464 22.1744 29.4804 22.1744 29.7694L22.1744 31.9624C22.1744 32.2504 21.9404 32.4844 21.6514 32.4844"/>
      <path fill="#F9C0FF" d="M12.5776,29.5239 C11.8566,29.5239 11.2726,28.9399 11.2726,28.2189 L11.2726,22.7209 C11.2726,21.9999 11.8566,21.4159 12.5776,21.4159 C13.2986,21.4159 13.8826,21.9999 13.8826,22.7209 L13.8826,28.2189 C13.8826,28.9399 13.2986,29.5239 12.5776,29.5239"/>
      <path fill="#F9C0FF" d="M16.6318,25.4014 L16.6318,25.5384 C16.6318,26.2594 16.0478,26.8434 15.3268,26.8434 L9.8278,26.8434 C9.1078,26.8434 8.5238,26.2594 8.5238,25.5384 L8.5238,25.4014 C8.5238,24.6804 9.1078,24.0964 9.8278,24.0964 L15.3268,24.0964 C16.0478,24.0964 16.6318,24.6804 16.6318,25.4014"/>
    </g>
    <g transform="translate(150)">
      <path fill="#DFC0FF" d="M46.4351 25.5L42.4351 25.5C42.4351 16.314 34.9621 8.841 25.7761 8.841L25.7761 4.841C37.1671 4.841 46.4351 14.108 46.4351 25.5M25.7764 46.1582L25.7764 42.1582C34.9624 42.1582 42.4354 34.6852 42.4354 25.5002L46.4354 25.5002C46.4354 36.8902 37.1674 46.1582 25.7764 46.1582M25.7764 46.1582C14.3854 46.1582 5.1184 36.8902 5.1184 25.5002L9.1184 25.5002C9.1184 34.6852 16.5904 42.1582 25.7764 42.1582L25.7764 46.1582z"/>
      <path fill="#DFC0FF" d="M9.1182,25.5 L5.1182,25.5 C5.1182,14.108 14.3852,4.841 25.7762,4.841 L25.7762,8.841 C16.5912,8.841 9.1182,16.314 9.1182,25.5"/>
      <path fill="#F9C0FF" d="M25.7764 30.4609C24.9474 30.4609 24.2764 29.7899 24.2764 28.9609L24.2764 25.4999 27.2764 25.4999 27.2764 28.9609C27.2764 29.7899 26.6054 30.4609 25.7764 30.4609M25.7764 51C24.9474 51 24.2764 50.329 24.2764 49.5L24.2764 39.438C24.2764 38.61 24.9474 37.938 25.7764 37.938 26.6054 37.938 27.2764 38.61 27.2764 39.438L27.2764 49.5C27.2764 50.329 26.6054 51 25.7764 51"/>
      <path fill="#F9C0FF" d="M27.2764 25.5L24.2764 25.5 24.2764 22.039C24.2764 21.211 24.9474 20.539 25.7764 20.539 26.6054 20.539 27.2764 21.211 27.2764 22.039L27.2764 25.5zM25.7764 13.0605C24.9474 13.0605 24.2764 12.3895 24.2764 11.5605L24.2764 1.4995C24.2764.6715 24.9474-.0005 25.7764-.0005 26.6054-.0005 27.2764.6715 27.2764 1.4995L27.2764 11.5605C27.2764 12.3895 26.6054 13.0605 25.7764 13.0605"/>
      <path fill="#F9C0FF" d="M25.7764 27L22.3164 27C21.4874 27 20.8164 26.329 20.8164 25.5 20.8164 24.671 21.4874 24 22.3164 24L25.7764 24 25.7764 27zM11.8374 27L1.7764 27C.9474 27 .2764 26.329.2764 25.5.2764 24.671.9474 24 1.7764 24L11.8374 24C12.6664 24 13.3374 24.671 13.3374 25.5 13.3374 26.329 12.6664 27 11.8374 27M49.7764 27L39.7154 27C38.8864 27 38.2154 26.329 38.2154 25.5 38.2154 24.671 38.8864 24 39.7154 24L49.7764 24C50.6054 24 51.2764 24.671 51.2764 25.5 51.2764 26.329 50.6054 27 49.7764 27"/>
      <path fill="#F9C0FF" d="M29.2373,27 L25.7763,27 L25.7763,24 L29.2373,24 C30.0663,24 30.7373,24.671 30.7373,25.5 C30.7373,26.329 30.0663,27 29.2373,27"/>
    </g>
    <g transform="translate(450 4)">
      <polygon fill="#F9C0FF" points="27.734 40.671 30.734 40.671 30.734 31.618 27.734 31.618"/>
      <polygon fill="#F9C0FF" points="19.427 40.671 22.427 40.671 22.427 31.618 19.427 31.618"/>
      <path fill="#DFC0FF" d="M4.081 29.618L46.081 29.618 46.081 4 4.081 4 4.081 29.618zM47.162 33.618L2.999 33.618C1.39 33.618.081 32.31.081 30.7L.081 2.919C.081 1.31 1.39 0 2.999 0L47.162 0C48.771 0 50.081 1.31 50.081 2.919L50.081 30.7C50.081 32.31 48.771 33.618 47.162 33.618zM33.8052 42.6709L16.3552 42.6709C15.2512 42.6709 14.3552 41.7749 14.3552 40.6709 14.3552 39.5669 15.2512 38.6709 16.3552 38.6709L33.8052 38.6709C34.9092 38.6709 35.8052 39.5669 35.8052 40.6709 35.8052 41.7749 34.9092 42.6709 33.8052 42.6709"/>
    </g>
    <g transform="translate(300 7)">
      <polygon fill="#DFC0FF" points="21.658 33.449 29.825 33.449 29.825 29.449 21.658 29.449"/>
      <path fill="#DFC0FF" d="M47.3325,4.0259 L43.3325,3.9999 L8.5235,3.9999 L4.5235,4.0259 L4.5235,1.8869 C4.5235,0.8449 5.3685,-0.0001 6.4105,-0.0001 L45.4455,-0.0001 C46.4875,-0.0001 47.3325,0.8449 47.3325,1.8869 L47.3325,4.0259 Z"/>
      <path fill="#F9C0FF" d="M47.1372,32.7988 L33.5532,32.7988 L33.2372,30.8488 C32.4392,25.9178 28.9332,22.8548 26.0052,22.7418 L25.9292,22.7398 L25.8542,22.7418 C22.9762,22.8498 19.3832,26.1318 18.6202,30.8488 L18.3042,32.7988 L4.7192,32.7988 L4.7192,9.8488 L6.5242,9.8488 L45.3332,9.8488 L46.2382,9.8488 C46.7342,9.8488 47.1372,10.2518 47.1372,10.7478 L47.1372,32.7988 Z M46.2382,5.8488 L45.3332,5.8488 L6.5242,5.8488 L4.2912,5.8488 C2.3212,5.8488 0.7192,7.4508 0.7192,9.4198 L0.7192,33.2278 C0.7192,35.1958 2.3212,36.7988 4.2912,36.7988 L19.3582,36.7988 C20.7202,36.7988 21.8662,35.8228 22.0832,34.4798 L22.5682,31.4868 C23.0692,28.3918 25.2312,26.8628 25.9372,26.7468 C26.9272,26.8698 28.8022,28.4838 29.2882,31.4868 L29.7732,34.4798 C29.9902,35.8228 31.1372,36.7988 32.4982,36.7988 L47.5662,36.7988 C49.5352,36.7988 51.1372,35.1958 51.1372,33.2278 L51.1372,10.7478 C51.1372,8.0468 48.9392,5.8488 46.2382,5.8488 Z"/>
      <path fill="#DFC0FF" d="M33.6147 20.2988C33.6147 22.3958 35.3147 24.0958 37.4117 24.0958 39.5097 24.0958 41.2097 22.3958 41.2097 20.2988 41.2097 18.2018 39.5097 16.5018 37.4117 16.5018 35.3147 16.5018 33.6147 18.2018 33.6147 20.2988M10.647 20.2988C10.647 22.3958 12.348 24.0958 14.445 24.0958 16.542 24.0958 18.242 22.3958 18.242 20.2988 18.242 18.2018 16.542 16.5018 14.445 16.5018 12.348 16.5018 10.647 18.2018 10.647 20.2988"/>
    </g>
    <g transform="translate(50 101)">
      <g transform="translate(452.5)">
        <path fill="#DFC0FF" d="M16.9849,14.2319 C14.9119,14.2319 12.9629,15.0399 11.4969,16.5049 C8.4699,19.5319 8.4699,24.4569 11.4969,27.4829 L24.4519,40.4379 L37.4069,27.4829 C40.4339,24.4569 40.4339,19.5319 37.4069,16.5049 C35.9409,15.0399 33.9919,14.2319 31.9189,14.2319 C29.8459,14.2319 27.8969,15.0399 26.4309,16.5049 L24.4529,18.4839 L22.4739,16.5059 C21.0069,15.0399 19.0579,14.2319 16.9849,14.2319 M24.4519,44.6129 C23.4959,44.6129 22.5979,44.2409 21.9219,43.5649 L8.6689,30.3109 C4.0819,25.7249 4.0819,18.2629 8.6689,13.6769 C10.8899,11.4559 13.8429,10.2319 16.9849,10.2319 C19.7409,10.2319 22.3529,11.1729 24.4519,12.9049 C26.5509,11.1729 29.1629,10.2319 31.9189,10.2319 C35.0609,10.2319 38.0139,11.4559 40.2349,13.6769 C44.8219,18.2629 44.8219,25.7249 40.2349,30.3109 L26.9819,43.5649 C26.3059,44.2409 25.4069,44.6129 24.4519,44.6129"/>
        <path fill="#F9C0FF" d="M4.106 44.4146C3.325 43.6336 3.325 42.3676 4.106 41.5856L7.698 38.0686C8.479 37.2886 9.745 37.2886 10.526 38.0686 11.307 38.8496 11.307 40.1166 10.526 40.8966L6.934 44.4146C6.153 45.1956 4.887 45.1956 4.106 44.4146M1.5234 2.2271C.7424 3.0081.7424 4.2741 1.5234 5.0551L5.2124 8.4311C5.9934 9.2121 7.2594 9.2121 8.0414 8.4311 8.8214 7.6501 8.8214 6.3841 8.0414 5.6031L4.3514 2.2271C3.5704 1.4461 2.3044 1.4461 1.5234 2.2271M46.8672 44.4146C47.6482 43.6336 47.6482 42.3676 46.8672 41.5856L43.2352 38.0686C42.4542 37.2886 41.1882 37.2886 40.4072 38.0686 39.6262 38.8496 39.6262 40.1166 40.4072 40.8966L44.0392 44.4146C44.8202 45.1956 46.0862 45.1956 46.8672 44.4146M47.4141.8984C48.1951 1.6794 48.1951 2.9454 47.4141 3.7274L43.7201 7.4314C42.9391 8.2124 41.6731 8.2124 40.8921 7.4314 40.1111 6.6504 40.1111 5.3834 40.8921 4.6034L44.5861.8984C45.3671.1174 46.6331.1174 47.4141.8984"/>
      </g>
      <g transform="translate(.5)">
        <path fill="#F9C0FF" d="M41.5562 21.0396L41.5562 32.9816C44.2342 32.5136 46.2762 30.1716 46.2762 27.3606L46.2762 26.6606C46.2762 23.8506 44.2342 21.5086 41.5562 21.0396M40.5702 37.0666L37.5562 37.0666 37.5562 16.9546 40.5702 16.9546C45.9222 16.9546 50.2762 21.3096 50.2762 26.6606L50.2762 27.3606C50.2762 32.7126 45.9222 37.0666 40.5702 37.0666M8.9961 21.0396C6.3181 21.5086 4.2761 23.8506 4.2761 26.6606L4.2761 27.3606C4.2761 30.1716 6.3181 32.5136 8.9961 32.9816L8.9961 21.0396zM9.9821 37.0666C4.6221 37.0666.2761 32.7216.2761 27.3606L.2761 26.6606C.2761 21.3006 4.6221 16.9546 9.9821 16.9546L12.9961 16.9546 12.9961 34.0536C12.9961 35.7176 11.6471 37.0666 9.9821 37.0666z"/>
        <path fill="#DFC0FF" d="M25.2764,47.6187 L25.2764,43.6187 C32.0474,43.6187 37.5564,38.1097 37.5564,31.3397 L37.5564,16.7867 C37.5564,10.3957 32.8224,4.8017 26.4594,4.2027 C19.1584,3.5157 12.9964,9.2647 12.9964,16.4277 L12.9964,34.0537 C12.9964,35.7177 11.6474,37.0667 9.9824,37.0667 L8.9964,37.0667 L8.9964,16.8587 C8.9964,7.7527 16.4474,-0.0023 25.5514,0.1497 C34.4014,0.2967 41.5564,7.5427 41.5564,16.4277 L41.5564,31.3397 C41.5564,40.3157 34.2534,47.6187 25.2764,47.6187"/>
        <path fill="#F9C0FF" d="M26.9243 45.7812C26.9243 47.3492 25.6533 48.6202 24.0853 48.6202 22.5163 48.6202 21.2453 47.3492 21.2453 45.7812 21.2453 44.2132 22.5163 42.9422 24.0853 42.9422 25.6533 42.9422 26.9243 44.2132 26.9243 45.7812M31.2441 22.9097L18.6611 22.9097C17.5561 22.9097 16.6611 23.8057 16.6611 24.9097 16.6611 26.0137 17.5561 26.9097 18.6611 26.9097L31.2441 26.9097C32.3481 26.9097 33.2441 26.0137 33.2441 24.9097 33.2441 23.8057 32.3481 22.9097 31.2441 22.9097"/>
      </g>
      <g transform="translate(152.5)">
        <polygon fill="#F9C0FF" points="31.789 15.285 28.961 12.457 39.311 2.107 42.139 4.935"/>
        <polygon fill="#DFC0FF" points="36.283 19.779 33.455 16.951 43.805 6.601 46.633 9.429"/>
        <path fill="#DFC0FF" d="M44.7305 10.6885L38.0335 3.9905C37.2515 3.2095 37.2515 1.9435 38.0325 1.1625 38.8135.3815 40.0805.3815 40.8605 1.1625L47.5585 7.8595C48.3395 8.6415 48.3395 9.9075 47.5585 10.6885 46.7775 11.4695 45.5115 11.4695 44.7305 10.6885M4.9863 39.1982C4.9913 39.0272 5.0613 38.8642 5.1823 38.7422L25.8063 18.1172 22.9783 15.2892 1.2273 37.0402C1.1063 37.1612 1.0363 37.3242 1.0313 37.4962L.7253 48.6202 4.8403 44.4912 4.9863 39.1982z"/>
        <path fill="#F9C0FF" d="M30.2144,10.8823 L27.3864,13.7103 L34.2204,20.5453 L10.6034,44.1633 C10.4824,44.2843 10.3184,44.3553 10.1474,44.3603 L4.8394,44.5053 L4.8404,44.4913 L0.7254,48.6203 L11.8494,48.3143 C12.0214,48.3103 12.1844,48.2393 12.3054,48.1183 L39.8784,20.5453 L30.2144,10.8823 Z"/>
        <path fill="#DFC0FF" d="M39.9673,26.2388 L23.1073,9.3788 C22.3263,8.5978 22.3263,7.3318 23.1073,6.5508 C23.8883,5.7698 25.1543,5.7698 25.9353,6.5508 L42.7953,23.4108 C43.5763,24.1918 43.5763,25.4578 42.7953,26.2388 C42.0143,27.0198 40.7483,27.0198 39.9673,26.2388"/>
      </g>
      <g transform="translate(301.5)">
        <path fill="#F9C0FF" d="M42.5576 7.4946L42.5576 16.4556C44.9066 15.6286 46.5936 13.3886 46.5936 10.7606L46.5936 7.4946 42.5576 7.4946zM40.5576 20.7966L38.5576 20.7966 38.5576 3.5526 40.6146 3.4946 48.7166 3.4946C49.7296 3.4946 50.5586 4.3016 50.5876 5.3146L50.5936 5.5526 50.5936 10.7606C50.5936 16.3026 46.1006 20.7966 40.5576 20.7966zM4.5937 7.4946L4.5937 10.7606C4.5937 13.3886 6.2807 15.6286 8.6297 16.4556L8.6297 7.4946 4.5937 7.4946zM12.6297 20.7966L10.6297 20.7966C5.0867 20.7966.5937 16.3026.5937 10.7606L.5937 5.3716C.5937 4.3586 1.4007 3.5296 2.4127 3.5006L2.6507 3.4946 12.5727 3.4946 12.6297 5.5526 12.6297 20.7966z"/>
        <path fill="#DFC0FF" d="M25.8047,40.6206 L25.3837,40.6206 C24.3947,40.6206 23.5937,39.8196 23.5937,38.8306 L23.5937,32.0516 L27.5937,32.0516 L27.5937,38.8306 C27.5937,39.8196 26.7927,40.6206 25.8047,40.6206"/>
        <path fill="#F9C0FF" d="M26.502,10.1011 L27.78,12.6901 C27.927,12.9891 28.212,13.1961 28.542,13.2441 L31.399,13.6591 C32.23,13.7801 32.562,14.8011 31.96,15.3871 L29.893,17.4021 C29.654,17.6341 29.545,17.9691 29.602,18.2981 L30.09,21.1431 C30.232,21.9711 29.364,22.6011 28.621,22.2111 L26.065,20.8681 C25.77,20.7121 25.418,20.7121 25.123,20.8681 L22.567,22.2111 C21.824,22.6011 20.957,21.9711 21.098,21.1431 L21.586,18.2981 C21.643,17.9691 21.534,17.6341 21.295,17.4021 L19.228,15.3871 C18.627,14.8011 18.959,13.7801 19.789,13.6591 L22.646,13.2441 C22.976,13.1961 23.261,12.9891 23.408,12.6901 L24.686,10.1011 C25.058,9.3491 26.13,9.3491 26.502,10.1011"/>
        <path fill="#DFC0FF" d="M12.6299,4.1235 L12.6299,17.0875 C12.6299,24.2355 18.4449,30.0515 25.5939,30.0515 C32.7419,30.0515 38.5579,24.2355 38.5579,17.0875 L38.5579,4.1235 L12.6299,4.1235 Z M25.8819,34.0485 C16.3949,34.2075 8.6299,26.1265 8.6299,16.6385 L8.6299,2.0005 C8.6299,0.9875 9.4369,0.1575 10.4499,0.1295 L10.6869,0.1235 L40.6799,0.1235 C41.6939,0.1235 42.5229,0.9305 42.5509,1.9435 L42.5579,2.1805 L42.5579,17.0875 C42.5579,26.3445 35.1039,33.8945 25.8819,34.0485 Z"/>
      </g>
    </g>
  </g>
</svg>
