<svg xmlns="http://www.w3.org/2000/svg" width="96" height="96" viewBox="0 0 96 96">
  <g fill="none" fill-rule="evenodd" transform="translate(28 16)">
    <path fill="#FFCCB3" fill-rule="nonzero" d="M35,20 L35,27 C35,33.15 31.3,38.44 26,40.75 C24.16,41.55 22.13,42 20,42 C17.87,42 15.84,41.55 14,40.75 C8.7,38.44 5,33.15 5,27 L5,19 L5,18.99 C5,13.46 9.47,8.99 15,8.99 L23,8.99 C24.66,8.99 26,10.33 26,11.99 L26,6.25 C31.29,8.56 35,13.85 35,20 Z"/>
    <path fill="#CCA38F" fill-rule="nonzero" d="M26,6.25 L26,8.834 C29.063,11.58 31,15.563 31,20 L31,27 C31,33.15 27.3,38.44 22,40.75 C20.747,41.295 19.401,41.662 18,41.851 C18.656,41.938 19.32,42 20,42 C22.13,42 24.16,41.55 26,40.75 C31.3,38.44 35,33.15 35,27 L35,20 C35,13.85 31.29,8.56 26,6.25 Z"/>
    <path fill="#CCA38F" fill-rule="nonzero" d="M26,41.75 L26,48 L20,51.99 L14,48 L14,41.75 C15.84,42.55 17.87,43 20,43 C22.13,43 24.16,42.55 26,41.75 Z"/>
    <path fill="#BF00E6" fill-rule="nonzero" d="M26,6.25 L26,11.99 C26,10.33 24.66,8.99 23,8.99 L15,8.99 C9.47,8.99 5,13.46 5,18.99 L5,19 L5,27 C5,33.15 8.7,38.44 14,40.75 L14,42.99 L2,42.99 L2,18.99 C2,9.04 10.05,0.99 20,0.99 L21,0.99 C23.76,0.99 26,3.23 26,5.99 L26,6.25 Z"/>
    <path fill="#8000FF" fill-rule="nonzero" d="M34,48 L26,48 L20,51.99 L14,48 L6,48 C2.68,48 0,50.69 0,54 L0,63 C0,63.55 0.45,64 1,64 L20,64 L39,64 C39.55,64 40,63.55 40,63 L40,54 C40,50.69 37.32,48 34,48 Z"/>
    <path fill="#60C" fill-rule="nonzero" d="M34,48 L30,48 C33.32,48 36,50.69 36,54 L36,63 C36,63.55 35.55,64 35,64 L39,64 C39.55,64 40,63.55 40,63 L40,54 C40,50.69 37.32,48 34,48 Z"/>
    <path fill="#BF00E6" fill-rule="nonzero" d="M28.029,14.99 C27.476,14.99 27.024,14.543 27.024,13.99 C27.024,13.437 27.466,12.99 28.018,12.99 L28.029,12.99 C28.581,12.99 29.029,13.437 29.029,13.99 C29.029,14.543 28.581,14.99 28.029,14.99 Z"/>
    <path fill="#FFF" fill-rule="nonzero" d="M17.03 38C16.477 38 16.025 37.553 16.025 37 16.025 36.447 16.467 36 17.019 36L17.03 36C17.582 36 18.03 36.447 18.03 37 18.03 37.553 17.582 38 17.03 38zM23.03 38C22.477 38 22.025 37.553 22.025 37 22.025 36.447 22.467 36 23.019 36L23.03 36C23.582 36 24.03 36.447 24.03 37 24.03 37.553 23.582 38 23.03 38z"/>
    <path fill="#BF00E6" fill-rule="nonzero" d="M31.03,13.988 C30.477,13.988 30.025,13.541 30.025,12.988 C30.025,12.435 30.467,11.988 31.019,11.988 L31.03,11.988 C31.582,11.988 32.03,12.435 32.03,12.988 C32.03,13.541 31.582,13.988 31.03,13.988 Z"/>
    <path fill="#EC87C0" fill-rule="nonzero" d="M29.029,11.99 C28.476,11.99 28.024,11.543 28.024,10.99 C28.024,10.437 28.466,9.99 29.018,9.99 L29.029,9.99 C29.581,9.99 30.029,10.437 30.029,10.99 C30.029,11.543 29.581,11.99 29.029,11.99 Z"/>
    <path fill="#BF00E6" fill-rule="nonzero" d="M29.029,9.99 L29.018,9.99 C28.466,9.99 28.024,10.437 28.024,10.99 C28.024,11.02 28.039,11.045 28.042,11.074 C28.231,11.329 28.399,11.599 28.572,11.867 C28.711,11.939 28.862,11.99 29.029,11.99 C29.581,11.99 30.029,11.543 30.029,10.99 C30.029,10.437 29.581,9.99 29.029,9.99 Z"/>
    <polygon fill="#4D0099" fill-rule="nonzero" points="19 51.325 19 64 20 64 21 64 21 51.325 20 51.99"/>
    <rect width="40" height="2" y="62" fill="#19181A" opacity=".3" rx="1"/>
  </g>
</svg>
