<svg xmlns="http://www.w3.org/2000/svg" width="96" height="96" viewBox="0 0 96 96">
  <g fill="none" fill-rule="evenodd" transform="translate(24 16)">
    <path fill="#0AF" fill-rule="nonzero" d="M8,48 L15.3323975,48 L25.3179932,64 L1,64 C0.45,64 0,63.56 0,63 L0,56.01 C0,51.58 3.58,48 8,48 Z"/>
    <path fill="#0AF" fill-rule="nonzero" d="M40,48.01 C44.42,48.01 48,51.58 48,56.01 L48,63 C48,63.56 47.55,64 47,64 L19,64 L35,48 L40,48.01 Z"/>
    <path fill="#08C" fill-rule="nonzero" d="M40,48.01 L35,48 L34.564,48.436 C39,49 42,52.481 42,56.01 L42,63 C42,63.56 41.55,64 41,64 L47,64 C47.55,64 48,63.56 48,63 L48,56.01 C48,51.58 44.42,48.01 40,48.01 Z"/>
    <polygon fill="#003A59" fill-rule="nonzero" points="36.5 48 31.5 53 33.5 56 18.5 64 21.35 60.199 21.36 60.199 23.5 57.33 30.5 48.01 30.5 48 30.5 44"/>
    <polygon fill="#005580" fill-rule="nonzero" points="23.5 57.33 21.36 60.199 21.35 60.199 13.5 56 15.5 53 10.5 48 16.5 44 16.5 48.01"/>
    <path fill="#BFEAFF" fill-rule="nonzero" d="M16.5,48.01 C16.5,48.01 19.5,50 23.5,50 C27.5,50 30.5,48.01 30.5,48.01 L23.5,57.33 L16.5,48.01 Z"/>
    <path fill="#997D73" fill-rule="nonzero" d="M30.5,48 C30.5,48.01 27.5,50 23.5,50 C19.5,50 16.5,48.01 16.5,48.01 L16.5,40.27 C18.59,41.37 20.97,42 23.5,42 C26.03,42 28.41,41.369 30.5,40.27 L30.5,48 Z"/>
    <path fill="#B39286" fill-rule="nonzero" d="M38.5,20 L38.5,26 C38.5,31.76 35.26,36.76 30.5,39.27 C28.41,40.37 26.03,41 23.5,41 C20.97,41 18.59,40.369 16.5,39.27 C11.74,36.76 8.5,31.76 8.5,26 L8.5,14 L32.5,14 C32.5,17.32 35.18,20 38.5,20 Z"/>
    <path fill="#997D73" fill-rule="nonzero" d="M34.5,18.468 L34.5,26 C34.5,31.76 31.26,36.76 26.5,39.27 C24.971,40.075 23.285,40.625 21.5,40.864 C22.154,40.952 22.821,41.001 23.5,41.001 C26.03,41.001 28.41,40.37 30.5,39.271 C35.26,36.761 38.5,31.761 38.5,26.001 L38.5,20.001 C36.959,20 35.562,19.418 34.5,18.468 Z"/>
    <path fill="#8B572A" fill-rule="nonzero" d="M38.5,11 L38.5,20 C35.18,20 32.5,17.32 32.5,14 L8.5,14 C4.08,14 0.5,10.43 0.5,6 L0.5,0 L1.5,0 L27.5,0 C33.57,0 38.5,4.93 38.5,11 Z"/>
    <path fill="#664B33" fill-rule="nonzero" d="M27.5,0 L23.5,0 C29.57,0 34.5,4.93 34.5,11 L34.5,18.468 C35.562,19.418 36.959,20 38.5,20 L38.5,11 C38.5,4.93 33.57,0 27.5,0 Z"/>
    <rect width="48" height="2" y="62" fill="#19181A" opacity=".3" rx="1"/>
  </g>
</svg>
