<svg xmlns="http://www.w3.org/2000/svg" width="600" height="200" viewBox="0 0 600 200">
  <g fill="none" fill-rule="evenodd">
    <polygon fill="#FFF" fill-opacity=".75" points="23 12 27 12 27 0 23 0"/>
    <path fill="#6000BF" fill-opacity=".75" d="M21.6514,33.4844 L18.7004,33.4844 C18.4124,33.4844 18.1784,33.2504 18.1784,32.9624 L18.1784,30.7694 C18.1784,30.4804 18.4124,30.2464 18.7004,30.2464 L21.6514,30.2464 C21.9404,30.2464 22.1744,30.4804 22.1744,30.7694 L22.1744,32.9624 C22.1744,33.2504 21.9404,33.4844 21.6514,33.4844"/>
    <path fill="#FFF" fill-opacity=".75" d="M37.1182 23.5991C37.1182 24.7221 36.2082 25.6321 35.0852 25.6321 33.9632 25.6321 33.0532 24.7221 33.0532 23.5991 33.0532 22.4761 33.9632 21.5661 35.0852 21.5661 36.2082 21.5661 37.1182 22.4761 37.1182 23.5991M40.7251 28.5024C40.7251 29.6254 39.8151 30.5354 38.6921 30.5354 37.5701 30.5354 36.6601 29.6254 36.6601 28.5024 36.6601 27.3794 37.5701 26.4694 38.6921 26.4694 39.8151 26.4694 40.7251 27.3794 40.7251 28.5024M12.5776 30.5239C11.8566 30.5239 11.2726 29.9399 11.2726 29.2189L11.2726 23.7209C11.2726 22.9999 11.8566 22.4159 12.5776 22.4159 13.2986 22.4159 13.8826 22.9999 13.8826 23.7209L13.8826 29.2189C13.8826 29.9399 13.2986 30.5239 12.5776 30.5239"/>
    <path fill="#FFF" fill-opacity=".75" d="M16.6318 26.4014L16.6318 26.5384C16.6318 27.2594 16.0478 27.8434 15.3268 27.8434L9.8278 27.8434C9.1078 27.8434 8.5238 27.2594 8.5238 26.5384L8.5238 26.4014C8.5238 25.6804 9.1078 25.0964 9.8278 25.0964L15.3268 25.0964C16.0478 25.0964 16.6318 25.6804 16.6318 26.4014M175.7764 30.4609C174.9474 30.4609 174.2764 29.7899 174.2764 28.9609L174.2764 25.4999 177.2764 25.4999 177.2764 28.9609C177.2764 29.7899 176.6054 30.4609 175.7764 30.4609M175.7764 51C174.9474 51 174.2764 50.329 174.2764 49.5L174.2764 39.438C174.2764 38.61 174.9474 37.938 175.7764 37.938 176.6054 37.938 177.2764 38.61 177.2764 39.438L177.2764 49.5C177.2764 50.329 176.6054 51 175.7764 51"/>
    <path fill="#FFF" fill-opacity=".75" d="M177.2764 25.5L174.2764 25.5 174.2764 22.039C174.2764 21.211 174.9474 20.539 175.7764 20.539 176.6054 20.539 177.2764 21.211 177.2764 22.039L177.2764 25.5zM175.7764 13.0605C174.9474 13.0605 174.2764 12.3895 174.2764 11.5605L174.2764 1.4995C174.2764.6715 174.9474-.0005 175.7764-.0005 176.6054-.0005 177.2764.6715 177.2764 1.4995L177.2764 11.5605C177.2764 12.3895 176.6054 13.0605 175.7764 13.0605"/>
    <path fill="#FFF" fill-opacity=".75" d="M175.7764 27L172.3164 27C171.4874 27 170.8164 26.329 170.8164 25.5 170.8164 24.671 171.4874 24 172.3164 24L175.7764 24 175.7764 27zM161.8374 27L151.7764 27C150.9474 27 150.2764 26.329 150.2764 25.5 150.2764 24.671 150.9474 24 151.7764 24L161.8374 24C162.6664 24 163.3374 24.671 163.3374 25.5 163.3374 26.329 162.6664 27 161.8374 27M199.7764 27L189.7154 27C188.8864 27 188.2154 26.329 188.2154 25.5 188.2154 24.671 188.8864 24 189.7154 24L199.7764 24C200.6054 24 201.2764 24.671 201.2764 25.5 201.2764 26.329 200.6054 27 199.7764 27"/>
    <path fill="#FFF" fill-opacity=".75" d="M179.2373,27 L175.7763,27 L175.7763,24 L179.2373,24 C180.0663,24 180.7373,24.671 180.7373,25.5 C180.7373,26.329 180.0663,27 179.2373,27"/>
    <polygon fill="#FFF" fill-opacity=".75" points="477.734 42 480.734 42 480.734 37 477.734 37"/>
    <polygon fill="#FFF" fill-opacity=".75" points="469.427 42 472.427 42 472.427 37 469.427 37"/>
    <path fill="#FFF" fill-opacity=".75" d="M506.606 145.4146C505.825 144.6336 505.825 143.3676 506.606 142.5856L510.198 139.0686C510.979 138.2886 512.245 138.2886 513.026 139.0686 513.807 139.8496 513.807 141.1166 513.026 141.8966L509.434 145.4146C508.653 146.1956 507.387 146.1956 506.606 145.4146M504.0234 103.2271C503.2424 104.0081 503.2424 105.2741 504.0234 106.0551L507.7124 109.4311C508.4934 110.2121 509.7594 110.2121 510.5414 109.4311 511.3214 108.6501 511.3214 107.3841 510.5414 106.6031L506.8514 103.2271C506.0704 102.4461 504.8044 102.4461 504.0234 103.2271M549.3672 145.4146C550.1482 144.6336 550.1482 143.3676 549.3672 142.5856L545.7352 139.0686C544.9542 138.2886 543.6882 138.2886 542.9072 139.0686 542.1262 139.8496 542.1262 141.1166 542.9072 141.8966L546.5392 145.4146C547.3202 146.1956 548.5862 146.1956 549.3672 145.4146M549.9141 101.8984C550.6951 102.6794 550.6951 103.9454 549.9141 104.7274L546.2201 108.4314C545.4391 109.2124 544.1731 109.2124 543.3921 108.4314 542.6111 107.6504 542.6111 106.3834 543.3921 105.6034L547.0861 101.8984C547.8671 101.1174 549.1331 101.1174 549.9141 101.8984M92.0562 122.0396L92.0562 133.9816C94.7342 133.5136 96.7762 131.1716 96.7762 128.3606L96.7762 127.6606C96.7762 124.8506 94.7342 122.5086 92.0562 122.0396M91.0702 138.0666L88.0562 138.0666 88.0562 117.9546 91.0702 117.9546C96.4222 117.9546 100.7762 122.3096 100.7762 127.6606L100.7762 128.3606C100.7762 133.7126 96.4222 138.0666 91.0702 138.0666M77.4243 146.7812C77.4243 148.3492 76.1533 149.6202 74.5853 149.6202 73.0163 149.6202 71.7453 148.3492 71.7453 146.7812 71.7453 145.2132 73.0163 143.9422 74.5853 143.9422 76.1533 143.9422 77.4243 145.2132 77.4243 146.7812M81.7441 123.9097L69.1611 123.9097C68.0561 123.9097 67.1611 124.8057 67.1611 125.9097 67.1611 127.0137 68.0561 127.9097 69.1611 127.9097L81.7441 127.9097C82.8481 127.9097 83.7441 127.0137 83.7441 125.9097 83.7441 124.8057 82.8481 123.9097 81.7441 123.9097M232.7144 111.8823L229.8864 114.7103 236.7204 121.5453 213.1034 145.1633C212.9824 145.2843 212.8184 145.3553 212.6474 145.3603L207.3394 145.5053 207.3404 145.4913 203.2254 149.6203 214.3494 149.3143C214.5214 149.3103 214.6844 149.2393 214.8054 149.1183L242.3784 121.5453 232.7144 111.8823zM394.0576 108.4946L394.0576 117.4556C396.4066 116.6286 398.0936 114.3886 398.0936 111.7606L398.0936 108.4946 394.0576 108.4946zM392.0576 121.7966L390.0576 121.7966 390.0576 104.5526 392.1146 104.4946 400.2166 104.4946C401.2296 104.4946 402.0586 105.3016 402.0876 106.3146L402.0936 106.5526 402.0936 111.7606C402.0936 117.3026 397.6006 121.7966 392.0576 121.7966zM356.0937 108.4946L356.0937 111.7606C356.0937 114.3886 357.7807 116.6286 360.1297 117.4556L360.1297 108.4946 356.0937 108.4946zM364.1297 121.7966L362.1297 121.7966C356.5867 121.7966 352.0937 117.3026 352.0937 111.7606L352.0937 106.3716C352.0937 105.3586 352.9007 104.5296 353.9127 104.5006L354.1507 104.4946 364.0727 104.4946 364.1297 106.5526 364.1297 121.7966z"/>
    <path fill="#6000BF" fill-opacity=".75" d="M377.3047,141.6206 L376.8837,141.6206 C375.8947,141.6206 375.0937,140.8196 375.0937,139.8306 L375.0937,133.0516 L379.0937,133.0516 L379.0937,139.8306 C379.0937,140.8196 378.2927,141.6206 377.3047,141.6206"/>
    <path fill="#FFF" fill-opacity=".75" d="M378.002 111.1011L379.28 113.6901C379.427 113.9891 379.712 114.1961 380.042 114.2441L382.899 114.6591C383.73 114.7801 384.062 115.8011 383.46 116.3871L381.393 118.4021C381.154 118.6341 381.045 118.9691 381.102 119.2981L381.59 122.1431C381.732 122.9711 380.864 123.6011 380.121 123.2111L377.565 121.8681C377.27 121.7121 376.918 121.7121 376.623 121.8681L374.067 123.2111C373.324 123.6011 372.457 122.9711 372.598 122.1431L373.086 119.2981C373.143 118.9691 373.034 118.6341 372.795 118.4021L370.728 116.3871C370.127 115.8011 370.459 114.7801 371.289 114.6591L374.146 114.2441C374.476 114.1961 374.761 113.9891 374.908 113.6901L376.186 111.1011C376.558 110.3491 377.63 110.3491 378.002 111.1011M59.4961 122.0396C56.8181 122.5086 54.7761 124.8506 54.7761 127.6606L54.7761 128.3606C54.7761 131.1716 56.8181 133.5136 59.4961 133.9816L59.4961 122.0396zM60.4821 138.0666C55.1221 138.0666 50.7761 133.7216 50.7761 128.3606L50.7761 127.6606C50.7761 122.3006 55.1221 117.9546 60.4821 117.9546L63.4961 117.9546 63.4961 135.0536C63.4961 136.7176 62.1471 138.0666 60.4821 138.0666z"/>
    <g fill="#6000BF" transform="translate(0 4)">
      <path d="M196.4351 21.5L192.4351 21.5C192.4351 12.314 184.9621 4.841 175.7761 4.841L175.7761.841C187.1671.841 196.4351 10.108 196.4351 21.5M175.7764 42.1582L175.7764 38.1582C184.9624 38.1582 192.4354 30.6852 192.4354 21.5002L196.4354 21.5002C196.4354 32.8902 187.1674 42.1582 175.7764 42.1582M175.7764 42.1582C164.3854 42.1582 155.1184 32.8902 155.1184 21.5002L159.1184 21.5002C159.1184 30.6852 166.5904 38.1582 175.7764 38.1582L175.7764 42.1582z"/>
      <path d="M159.1182 21.5L155.1182 21.5C155.1182 10.108 164.3852.841 175.7762.841L175.7762 4.841C166.5912 4.841 159.1182 12.314 159.1182 21.5M454.081 29.073532L496.081 29.073532 496.081 3.92646796 454.081 3.92646796 454.081 29.073532zM497.162 33L452.999 33C451.39 33 450.081 31.716045 450.081 30.1356416L450.081 2.86534C450.081 1.28591826 451.39 0 452.999 0L497.162 0C498.771 0 500.081 1.28591826 500.081 2.86534L500.081 30.1356416C500.081 31.716045 498.771 33 497.162 33zM483.45 42L466 42C464.896 42 464 41.104 464 40 464 38.896 464.896 38 466 38L483.45 38C484.554 38 485.45 38.896 485.45 40 485.45 41.104 484.554 42 483.45 42"/>
      <polygon points="321.658 36.449 329.825 36.449 329.825 32.449 321.658 32.449"/>
      <path d="M347.3325 7.0259L343.3325 6.9999 308.5235 6.9999 304.5235 7.0259 304.5235 4.8869C304.5235 3.8449 305.3685 2.9999 306.4105 2.9999L345.4455 2.9999C346.4875 2.9999 347.3325 3.8449 347.3325 4.8869L347.3325 7.0259zM333.6147 23.2988C333.6147 25.3958 335.3147 27.0958 337.4117 27.0958 339.5097 27.0958 341.2097 25.3958 341.2097 23.2988 341.2097 21.2018 339.5097 19.5018 337.4117 19.5018 335.3147 19.5018 333.6147 21.2018 333.6147 23.2988M310.647 23.2988C310.647 25.3958 312.348 27.0958 314.445 27.0958 316.542 27.0958 318.242 25.3958 318.242 23.2988 318.242 21.2018 316.542 19.5018 314.445 19.5018 312.348 19.5018 310.647 21.2018 310.647 23.2988M519.4849 111.2319C517.4119 111.2319 515.4629 112.0399 513.9969 113.5049 510.9699 116.5319 510.9699 121.4569 513.9969 124.4829L526.9519 137.4379 539.9069 124.4829C542.9339 121.4569 542.9339 116.5319 539.9069 113.5049 538.4409 112.0399 536.4919 111.2319 534.4189 111.2319 532.3459 111.2319 530.3969 112.0399 528.9309 113.5049L526.9529 115.4839 524.9739 113.5059C523.5069 112.0399 521.5579 111.2319 519.4849 111.2319M526.9519 141.6129C525.9959 141.6129 525.0979 141.2409 524.4219 140.5649L511.1689 127.3109C506.5819 122.7249 506.5819 115.2629 511.1689 110.6769 513.3899 108.4559 516.3429 107.2319 519.4849 107.2319 522.2409 107.2319 524.8529 108.1729 526.9519 109.9049 529.0509 108.1729 531.6629 107.2319 534.4189 107.2319 537.5609 107.2319 540.5139 108.4559 542.7349 110.6769 547.3219 115.2629 547.3219 122.7249 542.7349 127.3109L529.4819 140.5649C528.8059 141.2409 527.9069 141.6129 526.9519 141.6129M207.4863 136.1982C207.4913 136.0272 207.5613 135.8642 207.6823 135.7422L228.3063 115.1172 225.4783 112.2892 203.7273 134.0402C203.6063 134.1612 203.5363 134.3242 203.5313 134.4962L203.2253 145.6202 207.3403 141.4912 207.4863 136.1982zM17.2007 32.7556925L32.0477 32.7556925C34.1257 32.7556925 35.8157 34.434415 35.8157 36.4985482 35.8157 40.0983648 38.7637 43.0266925 42.3877 43.0266925 43.9657 43.0266925 45.2487 41.7522541 45.2487 40.1847843L45.2487 21.5738118C45.2487 16.2803729 40.9127 11.9733075 35.5827 11.9733075L13.6657 11.9733075C8.3357 11.9733075 3.9997 16.2803729 3.9997 21.5738118L3.9997 40.1847843C3.9997 41.7522541 5.2837 43.0266925 6.8607 43.0266925 10.4847 43.0266925 13.4327 40.0983648 13.4327 36.4985482 13.4327 34.434415 15.1227 32.7556925 17.2007 32.7556925M42.3877 47C36.6357 47 31.9417 42.4138098 31.8177 36.7290001L17.4307 36.7290001C17.3067 42.4138098 12.6127 47 6.8607 47 3.0777 47-.0003 43.9435332-.0003 40.1847843L-.0003 21.5738118C-.0003 14.0890938 6.1307 8 13.6657 8L35.5827 8C43.1177 8 49.2487 14.0890938 49.2487 21.5738118L49.2487 40.1847843C49.2487 43.9435332 46.1707 47 42.3877 47"/>
      <path d="M31.0225 29.4844L28.0715 29.4844C27.7835 29.4844 27.5485 29.2504 27.5485 28.9624L27.5485 26.7694C27.5485 26.4804 27.7835 26.2464 28.0715 26.2464L31.0225 26.2464C31.3115 26.2464 31.5455 26.4804 31.5455 26.7694L31.5455 28.9624C31.5455 29.2504 31.3115 29.4844 31.0225 29.4844M237.395 112.5105L244.723937 105.181563 240.5335 100.9905C239.7515 100.2095 239.7515 98.9435 240.5325 98.1625 241.3135 97.3815 242.5805 97.3815 243.3605 98.1625L250.0585 104.8595C250.8395 105.6415 250.8395 106.9075 250.0585 107.6885 249.388004 108.358996 248.360045 108.453865 247.588393 107.973107L240.223 115.3385 245.2953 120.4108C246.0763 121.1918 246.0763 122.4578 245.2953 123.2388 244.5143 124.0198 243.2483 124.0198 242.4673 123.2388L225.6073 106.3788C224.8263 105.5978 224.8263 104.3318 225.6073 103.5508 226.3883 102.7698 227.6543 102.7698 228.4353 103.5508L237.395 112.5105zM75.7764 144.6187L75.7764 140.6187C82.5474 140.6187 88.0564 135.1097 88.0564 128.3397L88.0564 113.7867C88.0564 107.3957 83.3224 101.8017 76.9594 101.2027 69.6584 100.5157 63.4964 106.2647 63.4964 113.4277L63.4964 131.0537C63.4964 132.7177 62.1474 134.0667 60.4824 134.0667L59.4964 134.0667 59.4964 113.8587C59.4964 104.7527 66.9474 96.9977 76.0514 97.1497 84.9014 97.2967 92.0564 104.5427 92.0564 113.4277L92.0564 128.3397C92.0564 137.3157 84.7534 144.6187 75.7764 144.6187M364.1299 101.1235L364.1299 114.0875C364.1299 121.2355 369.9449 127.0515 377.0939 127.0515 384.2419 127.0515 390.0579 121.2355 390.0579 114.0875L390.0579 101.1235 364.1299 101.1235zM377.3819 131.0485C367.8949 131.2075 360.1299 123.1265 360.1299 113.6385L360.1299 99.0005C360.1299 97.9875 360.9369 97.1575 361.9499 97.1295L362.1869 97.1235 392.1799 97.1235C393.1939 97.1235 394.0229 97.9305 394.0509 98.9435L394.0579 99.1805 394.0579 114.0875C394.0579 123.3445 386.6039 130.8945 377.3819 131.0485z"/>
    </g>
    <path fill="#FFF" fill-opacity=".75" d="M347.1372,39.7988 L333.5532,39.7988 L333.2372,37.8488 C332.4392,32.9178 328.9332,29.8548 326.0052,29.7418 L325.9292,29.7398 L325.8542,29.7418 C322.9762,29.8498 319.3832,33.1318 318.6202,37.8488 L318.3042,39.7988 L304.7192,39.7988 L304.7192,16.8488 L306.5242,16.8488 L345.3332,16.8488 L346.2382,16.8488 C346.7342,16.8488 347.1372,17.2518 347.1372,17.7478 L347.1372,39.7988 Z M346.2382,12.8488 L345.3332,12.8488 L306.5242,12.8488 L304.2912,12.8488 C302.3212,12.8488 300.7192,14.4508 300.7192,16.4198 L300.7192,40.2278 C300.7192,42.1958 302.3212,43.7988 304.2912,43.7988 L319.3582,43.7988 C320.7202,43.7988 321.8662,42.8228 322.0832,41.4798 L322.5682,38.4868 C323.0692,35.3918 325.2312,33.8628 325.9372,33.7468 C326.9272,33.8698 328.8022,35.4838 329.2882,38.4868 L329.7732,41.4798 C329.9902,42.8228 331.1372,43.7988 332.4982,43.7988 L347.5662,43.7988 C349.5352,43.7988 351.1372,42.1958 351.1372,40.2278 L351.1372,17.7478 C351.1372,15.0468 348.9392,12.8488 346.2382,12.8488 Z"/>
  </g>
</svg>
